<svg xmlns="http://www.w3.org/2000/svg" viewBox="0 0 40 40"><defs><style>.cls-1,.cls-2{fill:#14253e;}.cls-1{fill-rule:evenodd;}</style></defs><g id="Calque_2" data-name="Calque 2"><g id="CLIC_CAS_USAGE" data-name="CLIC CAS USAGE"><path class="cls-1" d="M34,0a5.4,5.4,0,1,0,5.39,5.39A5.4,5.4,0,0,0,34,0Zm0,.7a4.7,4.7,0,1,1-4.69,4.69A4.69,4.69,0,0,1,34,.7Z"/><path class="cls-1" d="M5.39.57A5.4,5.4,0,1,0,10.79,6,5.4,5.4,0,0,0,5.39.57Zm0,.7A4.69,4.69,0,1,1,.7,6,4.7,4.7,0,0,1,5.39,1.27Z"/><path class="cls-1" d="M6,29.21a5.4,5.4,0,1,0,5.4,5.4A5.4,5.4,0,0,0,6,29.21Zm0,.7a4.7,4.7,0,1,1-4.69,4.7A4.7,4.7,0,0,1,6,29.91Z"/><path class="cls-1" d="M34.61,28.64A5.4,5.4,0,1,0,40,34a5.4,5.4,0,0,0-5.39-5.4Zm0,.71A4.69,4.69,0,1,1,29.91,34,4.69,4.69,0,0,1,34.61,29.35Z"/><path class="cls-1" d="M20,9.12A10.88,10.88,0,1,0,30.88,20,10.89,10.89,0,0,0,20,9.12Zm0,.7A10.18,10.18,0,1,1,9.82,20,10.18,10.18,0,0,1,20,9.82Z"/><circle class="cls-2" cx="20" cy="20" r="8.07"/><path class="cls-1" d="M13.66,11.88V6.25A1.62,1.62,0,0,1,14.3,5l1.45-1.08a.37.37,0,0,0,.07-.5.36.36,0,0,0-.49-.07L13.88,4.39A2.34,2.34,0,0,0,13,6.25v5.63a.36.36,0,0,0,.71,0Z"/><path class="cls-1" d="M11.88,26.34H6.25A1.62,1.62,0,0,1,5,25.7L3.88,24.25a.37.37,0,0,0-.5-.07.36.36,0,0,0-.07.49l1.08,1.45a2.34,2.34,0,0,0,1.86.93h5.63a.36.36,0,0,0,0-.71Z"/><path class="cls-1" d="M26.34,28.12v5.63a1.65,1.65,0,0,1-.64,1.3l-1.45,1.07a.37.37,0,0,0-.07.5.36.36,0,0,0,.49.07l1.45-1.08a2.34,2.34,0,0,0,.93-1.86V28.12a.36.36,0,0,0-.71,0Z"/><path class="cls-1" d="M28.12,13.66h5.63a1.65,1.65,0,0,1,1.3.64l1.07,1.45a.37.37,0,0,0,.5.07.36.36,0,0,0,.07-.49l-1.08-1.45A2.34,2.34,0,0,0,33.75,13H28.12a.36.36,0,0,0,0,.71Z"/><path class="cls-1" d="M23.16,39.33a2,2,0,1,0-2-2A2,2,0,0,0,23.16,39.33Z"/><path class="cls-1" d="M.67,23.16a2,2,0,1,0,2-2A2,2,0,0,0,.67,23.16Z"/><path class="cls-1" d="M39.33,16.84a2,2,0,1,0-2,2A2,2,0,0,0,39.33,16.84Z"/><circle class="cls-2" cx="16.84" cy="2.64" r="1.97"/><path class="cls-1" d="M30.46,18.48a.35.35,0,0,0-.35.39,9.24,9.24,0,0,1,0,2.27.35.35,0,0,0,.35.39h.78a1.84,1.84,0,0,1,1.84,1.84v5.76a.35.35,0,0,0,.43.35,4.68,4.68,0,0,1,2.19,0,.35.35,0,0,0,.3-.07.34.34,0,0,0,.13-.28V23.37a4.88,4.88,0,0,0-4.89-4.89Z"/><path class="cls-1" d="M9.54,21.52a.35.35,0,0,0,.35-.39,9.24,9.24,0,0,1,0-2.27.35.35,0,0,0-.35-.39H8.76a1.84,1.84,0,0,1-1.84-1.84V10.87a.37.37,0,0,0-.13-.28.33.33,0,0,0-.3-.06,5.06,5.06,0,0,1-2.19,0,.32.32,0,0,0-.3.06.34.34,0,0,0-.13.28v5.76a4.88,4.88,0,0,0,4.89,4.89Z"/><path class="cls-1" d="M18.48,9.54a.35.35,0,0,0,.39.35,9.24,9.24,0,0,1,2.27,0,.35.35,0,0,0,.39-.35V8.76a1.84,1.84,0,0,1,1.84-1.84h5.76a.35.35,0,0,0,.35-.43,4.42,4.42,0,0,1-.13-1.1,4.4,4.4,0,0,1,.13-1.09.35.35,0,0,0-.07-.3.34.34,0,0,0-.28-.13H23.37a4.88,4.88,0,0,0-4.89,4.89Z"/><path class="cls-1" d="M18.86,30.11a.35.35,0,0,0-.39.35v.78a1.84,1.84,0,0,1-1.84,1.84H10.87a.37.37,0,0,0-.28.13.33.33,0,0,0-.06.3,5.06,5.06,0,0,1,0,2.19.32.32,0,0,0,.06.3.34.34,0,0,0,.28.13h5.76a4.88,4.88,0,0,0,4.89-4.89v-.78a.35.35,0,0,0-.39-.35,9.24,9.24,0,0,1-2.27,0Z"/></g></g></svg>