<svg xmlns="http://www.w3.org/2000/svg" viewBox="0 0 30 25"><defs><style>.cls-1{fill:#17243f;}</style></defs><g id="Calque_2" data-name="Calque 2"><g id="CATALOGUE_-_donnee" data-name="CATALOGUE - donnee"><path class="cls-1" d="M27.5,3.75H21.25V2.5A2.5,2.5,0,0,0,18.75,0h-7.5a2.5,2.5,0,0,0-2.5,2.5V3.75H2.5A2.5,2.5,0,0,0,0,6.25V10a2.5,2.5,0,0,0,2.5,2.5h10v-.63a.63.63,0,0,1,.63-.62h3.75a.62.62,0,0,1,.62.62v.63h10A2.5,2.5,0,0,0,30,10V6.25A2.5,2.5,0,0,0,27.5,3.75Zm-8.75,0h-7.5V2.5h7.5Z"/><path class="cls-1" d="M29.65,13.17a.62.62,0,0,0-.65.07,2.51,2.51,0,0,1-1.5.51h-10v1.87a.63.63,0,0,1-.63.63H13.12a.63.63,0,0,1-.62-.63V13.75H2.5A2.51,2.51,0,0,1,1,13.24a.62.62,0,0,0-.65-.07.63.63,0,0,0-.35.56V22.5A2.5,2.5,0,0,0,2.5,25h25A2.5,2.5,0,0,0,30,22.5V13.73A.63.63,0,0,0,29.65,13.17Z"/></g></g></svg>