<svg xmlns="http://www.w3.org/2000/svg" viewBox="0 0 40 40"><defs><style>.cls-1{fill:#14253e;}</style></defs><g id="Calque_2" data-name="Calque 2"><g id="CLIC_CAS_USAGE" data-name="CLIC CAS USAGE"><g id="_9" data-name="9"><path id="icon" class="cls-1" d="M32.9,28.2v1.35h1.24V29.5Zm6.23,6.52-5-5.22v.05H32.9V28.2l-.93-1a2.93,2.93,0,0,0-1.45-.83,2.78,2.78,0,0,0-.81-.07l-1.93-2a12.42,12.42,0,0,0,.78-1.25,13.59,13.59,0,0,0,1.57-4.87,13,13,0,0,0,.12-1.77,14.2,14.2,0,0,0-.26-2.7,13.65,13.65,0,0,0-.71-2.44A12.81,12.81,0,0,0,28,8.89,13.51,13.51,0,0,0,26.5,7a1.85,1.85,0,0,0-.14-.14c-.23-.23-.46-.45-.7-.65a11.3,11.3,0,0,0-1.23-1,12.19,12.19,0,0,0-1.67-1,10.86,10.86,0,0,0-1.11-.47,11.78,11.78,0,0,0-2-.54,9.67,9.67,0,0,0-1.33-.17l-.86,0a11.72,11.72,0,0,0-1.88.14,11.11,11.11,0,0,0-1.25.26,10.56,10.56,0,0,0-1.09.34,11,11,0,0,0-1.36.59,6.23,6.23,0,0,0-.72.39,12.15,12.15,0,0,0-1.21.81A13.61,13.61,0,0,0,8.35,7l-.09.1a11.9,11.9,0,0,0-.86,1,13.31,13.31,0,0,0-2.31,4.66,14.17,14.17,0,0,0-.49,3.7A15,15,0,0,0,4.82,19a13.53,13.53,0,0,0,2.34,5.51,13.2,13.2,0,0,0,1,1.23l.18.2A14.15,14.15,0,0,0,11,28a13,13,0,0,0,2.54,1.17c.41.13.82.24,1.24.33a12.33,12.33,0,0,0,8.44-1.15,10.4,10.4,0,0,0,1.24-.74,5.3,5.3,0,0,0,.54-.39l1.93,2a3.11,3.11,0,0,0,.86,2.34l7.16,7.49A2.92,2.92,0,0,0,37,40a2.88,2.88,0,0,0,2.1-.9A3.19,3.19,0,0,0,39.13,34.72ZM23.7,23l-.14.13a.93.93,0,0,1-.14.14,7.77,7.77,0,0,1-1.19,1l-.47.3a6.58,6.58,0,0,1-1,.51,7.8,7.8,0,0,1-1.18.4,8,8,0,0,1-1.71.25h-.42c-.27,0-.54,0-.8,0a8.35,8.35,0,0,1-1.85-.39,8.18,8.18,0,0,1-2.16-1.06A8.9,8.9,0,0,1,11.15,23a9.38,9.38,0,0,1-2.27-4,9.75,9.75,0,0,1,.49-6.43,9.08,9.08,0,0,1,1.78-2.65A8.24,8.24,0,0,1,12.7,8.59,8.25,8.25,0,0,1,14,7.87h0l.28-.11a9.23,9.23,0,0,1,1.53-.45,8.61,8.61,0,0,1,1.61-.15,7.46,7.46,0,0,1,.95.06,7.33,7.33,0,0,1,1.24.23,8.36,8.36,0,0,1,1.22.42,8.74,8.74,0,0,1,2.87,2,9.15,9.15,0,0,1,2.18,3.73,8.83,8.83,0,0,1,.23.92,9.21,9.21,0,0,1,.19,1.9A9.38,9.38,0,0,1,23.7,23ZM35.52,24.1a1.19,1.19,0,0,1-.06.3,1.2,1.2,0,0,1-1,.92,6,6,0,0,1-.92.09v1h1.67v5.14h1.44V24.1ZM32,25.05a1.93,1.93,0,0,0-1.72-1,14.69,14.69,0,0,1-.9,1.46l.06.06a.75.75,0,0,1,.65-.32.8.8,0,0,1,.82.65,5.66,5.66,0,0,1,.18,1.39l.52.54a3.32,3.32,0,0,1,.94.08v0A5.91,5.91,0,0,0,32,25.05Zm-9.58.36v.31l.54-.34C22.77,25.39,22.59,25.41,22.38,25.41Zm1.94-1.31a.56.56,0,0,1,0,.16,1.29,1.29,0,0,0,.17-.16Zm-.26,6.09v1.35h1.43V29.33A13.89,13.89,0,0,1,24.06,30.19Zm-3.29-5.14a2,2,0,0,0-1.91-1,2,2,0,0,0-1.91,1,4.94,4.94,0,0,0-.51,2c.3,0,.61,0,.92,0h.49A5.55,5.55,0,0,1,18,25.9a.82.82,0,0,1,.83-.65.8.8,0,0,1,.82.65,6.15,6.15,0,0,1,.15.87,10.83,10.83,0,0,0,1.36-.45A4.12,4.12,0,0,0,20.77,25.05Zm-7.64-.95a.86.86,0,0,1-.06.3,1.07,1.07,0,0,1-.27.53,1.23,1.23,0,0,1-.68.39l-.32.05a9.85,9.85,0,0,0,2.5,1.23V24.1Zm-.27,7v.41H14.3v0A11.73,11.73,0,0,1,12.86,31.13ZM8.64,28.9a5.12,5.12,0,0,1-.15,1,.8.8,0,0,1-.82.68.81.81,0,0,1-.83-.68,7.43,7.43,0,0,1-.2-2c0-.3,0-.56,0-.8A15.75,15.75,0,0,1,5.5,25.66a7.45,7.45,0,0,0-.29,2.23,5.87,5.87,0,0,0,.55,2.83,2,2,0,0,0,1.91,1,2,2,0,0,0,1.91-1,4.29,4.29,0,0,0,.35-.94C9.49,29.51,9.06,29.21,8.64,28.9Zm-6.7-4.8a1.65,1.65,0,0,1-.05.3,1.4,1.4,0,0,1-.28.53,1.22,1.22,0,0,1-.69.39,5.89,5.89,0,0,1-.92.09v1H1.67v5.14H3.11V24.1Zm34-11.29a2,2,0,0,0-1.91-1,2,2,0,0,0-1.91,1,3,3,0,0,0-.19.45,17,17,0,0,1,.29,3.12,15.46,15.46,0,0,1-.13,2.05l0,.06a2,2,0,0,0,1.91,1,2,2,0,0,0,1.91-1,6.06,6.06,0,0,0,.55-2.84A6,6,0,0,0,35.91,12.81Zm-1.09,4.8a.83.83,0,0,1-1.64,0,7,7,0,0,1-.21-2,6.91,6.91,0,0,1,.21-2,.84.84,0,0,1,1.64,0,7.46,7.46,0,0,1,.19,2A7.51,7.51,0,0,1,34.82,17.61Zm-7.68-4.5c-.18,0-.45.05-.81.06v1h1.08A9.13,9.13,0,0,0,27.14,13.11Zm-3.92-1.25a1.07,1.07,0,0,1,0,.3,1.2,1.2,0,0,1-1,.92,6.21,6.21,0,0,1-.93.09v1H23V19.3h1.43V11.86Zm-3.55,1a2,2,0,0,0-1.91-1,2,2,0,0,0-1.91,1,6,6,0,0,0-.55,2.84,6.06,6.06,0,0,0,.55,2.84,2,2,0,0,0,1.91,1,2,2,0,0,0,1.91-1,6.06,6.06,0,0,0,.55-2.84A6,6,0,0,0,19.67,12.81Zm-1.09,4.8a.83.83,0,0,1-1.64,0,7,7,0,0,1-.21-2,6.91,6.91,0,0,1,.21-2,.84.84,0,0,1,1.64,0,7.46,7.46,0,0,1,.19,2A7.51,7.51,0,0,1,18.58,17.61ZM12,11.86a1.65,1.65,0,0,1,0,.3,1.4,1.4,0,0,1-.28.53,1.23,1.23,0,0,1-.68.39,6.21,6.21,0,0,1-.93.09v1h1.68V19.3H13.2V11.86Zm-4,0a10.9,10.9,0,0,0-1,4.52,11.35,11.35,0,0,0,.38,2.92h.67V11.86Zm-5,0H1.94a1.65,1.65,0,0,1-.05.3,1.4,1.4,0,0,1-.28.53,1.22,1.22,0,0,1-.69.39,5.89,5.89,0,0,1-.92.09v1H1.67V19.3H2.8a16.6,16.6,0,0,1-.26-2.92,16.43,16.43,0,0,1,.57-4.28ZM35.52.05a1.11,1.11,0,0,1-.06.3,1.26,1.26,0,0,1-.27.53,1.35,1.35,0,0,1-.68.4,8,8,0,0,1-.93.09v1h1.67V7.49h1.44V.05ZM32,1a2,2,0,0,0-1.92-1,2,2,0,0,0-1.9,1,5.89,5.89,0,0,0-.55,2.83,8.7,8.7,0,0,0,.1,1.42l.16.16a14.51,14.51,0,0,1,1.76,2.23,3,3,0,0,0,.43,0,2,2,0,0,0,1.92-1,6.09,6.09,0,0,0,.54-2.85A6,6,0,0,0,32,1ZM30.88,5.8a.83.83,0,0,1-.83.69.82.82,0,0,1-.82-.69,7.38,7.38,0,0,1-.2-2,7.48,7.48,0,0,1,.2-2,.81.81,0,0,1,.82-.64.82.82,0,0,1,.83.64,8,8,0,0,1,.19,2A7.92,7.92,0,0,1,30.88,5.8ZM26.37,1a2,2,0,0,0-1.91-1,2,2,0,0,0-1.91,1,2.93,2.93,0,0,0-.29.74,12.64,12.64,0,0,1,1.27.53,2.45,2.45,0,0,1,.11-.43.8.8,0,0,1,.82-.64.79.79,0,0,1,.81.64,5.37,5.37,0,0,1,.19,1.54A14,14,0,0,1,26.89,4.5c0-.2,0-.43,0-.66A6,6,0,0,0,26.37,1ZM18.46,5.72V7.49H19.9V6A8.71,8.71,0,0,0,18.46,5.72ZM18.73.05a1.11,1.11,0,0,1-.06.3,1.26,1.26,0,0,1-.27.53.12.12,0,0,1,0,.05,11.51,11.51,0,0,1,1.55.19V.05Zm-5,6.3a.88.88,0,0,1-.33.13h0a9.38,9.38,0,0,0-1.49.82,2.27,2.27,0,0,0,1.35.38,2,2,0,0,0,1.91-1,3.76,3.76,0,0,0,.33-.86A9.87,9.87,0,0,0,13.74,6.35ZM15.17,1a2,2,0,0,0-1.91-1,2,2,0,0,0-1.9,1,4.33,4.33,0,0,0-.45,1.41,14.58,14.58,0,0,1,1.57-.68.79.79,0,0,1,.78-.54.84.84,0,0,1,.49.15c.48-.12,1-.23,1.44-.3ZM9.58,1A2,2,0,0,0,7.67,0,2,2,0,0,0,5.76,1a6,6,0,0,0-.55,2.83,6.08,6.08,0,0,0,.55,2.85s0,0,0,0a12.35,12.35,0,0,1,1-1.17,7.82,7.82,0,0,1-.14-1.7,7.43,7.43,0,0,1,.2-2,.83.83,0,0,1,.83-.65.82.82,0,0,1,.82.65,7.78,7.78,0,0,1,.19,2,12.68,12.68,0,0,1,1.4-.94A4.79,4.79,0,0,0,9.58,1ZM1.94.05a1.53,1.53,0,0,1-.05.3,1.4,1.4,0,0,1-.28.53,1.3,1.3,0,0,1-.69.4A7.5,7.5,0,0,1,0,1.37v1H1.67V7.49H3.11V.05Z"/></g></g></g></svg>