<svg id="Calque_1" data-name="Calque 1" xmlns="http://www.w3.org/2000/svg" viewBox="0 0 564.55 140.35"><defs><style>.cls-1{fill:#0a102a;}.cls-2{fill:#d930ff;}.cls-3{fill:#01d1d1;}</style></defs><path class="cls-1" d="M146.26,74.19,112.38,40.31a36.29,36.29,0,0,0-51.33,0L27.17,74.19a36.3,36.3,0,0,0,0,51.33L61.05,159.4a36.3,36.3,0,0,0,51.33,0l2.18-2.18h-.46v-7.35h7.35v.46l13.11-13.11H131.1v-9.56h9.56v3.46l5.6-5.6A36.29,36.29,0,0,0,146.26,74.19ZM120.87,139.4h-5v-5h5Zm14.95-26.18H130.1V107.5h5.72Zm9.28-3v-7.35h7.35v7.35Z" transform="translate(-16.54 -29.68)"/><path class="cls-2" d="M61.77,127a16.45,16.45,0,0,1-5.71-10.22c-.81-6.1,1.9-12.79,8-19.89C75.4,83.76,75,71.74,73.73,65.74s-4.48-11.28-8.27-13.49c2.66.07,11.51.88,17.46,8,5.32,6.42,6.92,16.14,4.77,28.9a50,50,0,0,0-1.21-6.84c-1-4.11-3.15-9.57-7.15-12.26l-.73-.5a33,33,0,0,1,3.06,9.17,22.87,22.87,0,0,1-.06,7.93,17.39,17.39,0,0,1-3.93,8.12,73.76,73.76,0,0,1-7,6.82C63.23,108.27,56.19,114.55,61.77,127Z" transform="translate(-16.54 -29.68)"/><path class="cls-3" d="M84.88,143.52a16.32,16.32,0,0,1-2.6-2.73,18.85,18.85,0,0,1-3.63-9.09,18.3,18.3,0,0,1,4.26-13.92,56.31,56.31,0,0,0,10.5-18.7l.21-.67-.53.46a31.71,31.71,0,0,1-5,3.47C73,111,66.32,121.29,67.32,134.52a29.42,29.42,0,0,1-1.56-8.15A25.12,25.12,0,0,1,73,107.29,54.75,54.75,0,0,1,87.12,96.8,19.24,19.24,0,0,0,97,78.08a22.28,22.28,0,0,0-3.59-9.71,69.26,69.26,0,0,1,9.33,12,45.88,45.88,0,0,1,5.72,13.56,28.26,28.26,0,0,1-.62,15.58l-.22.66.53-.44a23,23,0,0,0,6.62-10.16,33.61,33.61,0,0,1-.61,6.26,30.27,30.27,0,0,1-7.33,15l-.64.75s4.61-2.56,9-2.56a13.46,13.46,0,0,1,2.48.23c-1.36.9-6,4-10.73,7.82-7,5.66-11,10.16-11.76,13.41a33.19,33.19,0,0,1-2-6.51c-.69-3.72-.59-9.78,2.17-14.27l-.63.41a16.84,16.84,0,0,0-4.64,5.08C88.06,128.41,85.42,134.27,84.88,143.52Z" transform="translate(-16.54 -29.68)"/><rect class="cls-1" x="139.41" y="108.38" width="7.35" height="7.35"/><rect class="cls-1" x="124.26" y="124.05" width="6.58" height="6.58"/><rect class="cls-1" x="143.4" y="127.41" width="3.93" height="3.93"/><rect class="cls-1" x="159.12" y="123.4" width="5.09" height="5.09"/><path class="cls-1" d="M191.14,119.38h-7.28V83h14.57a14.1,14.1,0,0,1,3.86.52,14.4,14.4,0,0,1,6.41,3.76,14.58,14.58,0,0,1,2.29,3,15.29,15.29,0,0,1,1.47,3.48,14.58,14.58,0,0,1-.62,9.51,15,15,0,0,1-3.13,4.64,14.65,14.65,0,0,1-4.63,3.12,14.16,14.16,0,0,1-5.65,1.14h-7.29Zm0-29.13v14.58h7.29a7,7,0,0,0,2.82-.57,7.27,7.27,0,0,0,3.87-3.89,7.31,7.31,0,0,0,0-5.66,7.3,7.3,0,0,0-3.87-3.88,7,7,0,0,0-2.82-.58Z" transform="translate(-16.54 -29.68)"/><path class="cls-1" d="M224.53,119.38h-7.29V83h14.58a14.1,14.1,0,0,1,3.86.52,14.54,14.54,0,0,1,6.41,3.76,14.19,14.19,0,0,1,2.28,3,14.88,14.88,0,0,1,1.48,3.48,14.54,14.54,0,0,1,.05,7.52,15.2,15.2,0,0,1-1.35,3.38,14.45,14.45,0,0,1-5,5.28l4,9.52h-7.74L232.68,112l-8.15,0Zm0-29.13v14.58h7.29a7,7,0,0,0,2.82-.57,7.27,7.27,0,0,0,3.87-3.89,7.31,7.31,0,0,0,0-5.66,7.3,7.3,0,0,0-3.87-3.88,7,7,0,0,0-2.82-.58Z" transform="translate(-16.54 -29.68)"/><path class="cls-1" d="M286.81,101.33a18.3,18.3,0,0,1-.67,5,19.47,19.47,0,0,1-1.89,4.5,18.44,18.44,0,0,1-2.94,3.82,19.69,19.69,0,0,1-3.81,3,18.73,18.73,0,0,1-4.5,1.9,18.69,18.69,0,0,1-10,0,18.8,18.8,0,0,1-8.31-4.86,18.53,18.53,0,0,1-3-3.82,19.1,19.1,0,0,1-1.91-4.5,18.3,18.3,0,0,1-.67-5,18.52,18.52,0,0,1,.67-5A18.84,18.84,0,0,1,254.7,88a18.44,18.44,0,0,1,3.82-2.94,18.77,18.77,0,0,1,19,0A19.2,19.2,0,0,1,281.31,88a18.64,18.64,0,0,1,2.94,3.81,19.22,19.22,0,0,1,1.89,4.49A18.52,18.52,0,0,1,286.81,101.33Zm-7.23,0a11.23,11.23,0,0,0-.92-4.51,11.56,11.56,0,0,0-2.47-3.68,11.76,11.76,0,0,0-3.68-2.48,11.66,11.66,0,0,0-9,0,12,12,0,0,0-3.68,2.48,11.62,11.62,0,0,0-2.49,3.68,11.22,11.22,0,0,0-.91,4.51,11.08,11.08,0,0,0,.91,4.48,11.69,11.69,0,0,0,6.17,6.15,11.54,11.54,0,0,0,9,0,11.59,11.59,0,0,0,3.68-2.48,11.86,11.86,0,0,0,2.47-3.67A11.09,11.09,0,0,0,279.58,101.33Z" transform="translate(-16.54 -29.68)"/><path class="cls-1" d="M327.72,119.38h-7.26v-26a3.53,3.53,0,0,0-.29-1.42,3.91,3.91,0,0,0-.79-1.16,3.68,3.68,0,0,0-5.16,0,3.67,3.67,0,0,0-.77,1.16,3.53,3.53,0,0,0-.28,1.42v26h-7.29v-26A3.65,3.65,0,0,0,300.83,90a3.47,3.47,0,0,0-1.15.77A3.7,3.7,0,0,0,298.9,92a3.53,3.53,0,0,0-.28,1.42v26h-7.29v-26a10.7,10.7,0,0,1,.86-4.26,10.87,10.87,0,0,1,2.33-3.47A11,11,0,0,1,298,83.31a10.68,10.68,0,0,1,4.25-.85,10.8,10.8,0,0,1,3.91.72,10.6,10.6,0,0,1,3.38,2.1,10.6,10.6,0,0,1,7.26-2.82,10.61,10.61,0,0,1,4.25.85,10.93,10.93,0,0,1,5.82,5.81,10.7,10.7,0,0,1,.85,4.26Z" transform="translate(-16.54 -29.68)"/><path class="cls-1" d="M359.18,119.38h-25V83h25v7.28H341.51v7.29h12v7.29h-12v7.26h17.67Z" transform="translate(-16.54 -29.68)"/><path class="cls-1" d="M379.57,119.38h-7.26V90.25H361.36V83h29.13v7.28H379.57Z" transform="translate(-16.54 -29.68)"/><path class="cls-1" d="M401.63,119.38h-7.29V83h7.29V97.54h14.55V83h7.29v36.41h-7.29V104.83H401.63Z" transform="translate(-16.54 -29.68)"/><path class="cls-1" d="M455.18,119.38h-25V83h25v7.28H437.51v7.29h12v7.29h-12v7.26h17.67Z" transform="translate(-16.54 -29.68)"/><path class="cls-1" d="M489,104.83a14.18,14.18,0,0,1-1.14,5.67,14.49,14.49,0,0,1-3.12,4.62,14.86,14.86,0,0,1-4.64,3.12,14.7,14.7,0,0,1-11.35,0A14.59,14.59,0,0,1,461,110.5a14.18,14.18,0,0,1-1.14-5.67V83h7.26v21.86a7,7,0,0,0,.57,2.82,7.27,7.27,0,0,0,3.89,3.87,7.31,7.31,0,0,0,5.66,0,7.3,7.3,0,0,0,3.88-3.87,7,7,0,0,0,.57-2.82V83H489Z" transform="translate(-16.54 -29.68)"/><path class="cls-1" d="M493.19,93.89a10.57,10.57,0,0,1,.86-4.24,11.09,11.09,0,0,1,5.82-5.82,10.57,10.57,0,0,1,4.24-.86h16.71v7.28H504.11a3.6,3.6,0,0,0-2.58,1.06,3.47,3.47,0,0,0-.77,1.15,3.58,3.58,0,0,0-.28,1.43,3.65,3.65,0,0,0,.28,1.43,3.45,3.45,0,0,0,.77,1.17,3.65,3.65,0,0,0,2.58,1.05h7.29a10.86,10.86,0,0,1,4.25.85,11,11,0,0,1,3.48,2.34,10.8,10.8,0,0,1,2.33,3.48,11,11,0,0,1,0,8.49,10.87,10.87,0,0,1-2.33,3.47,11,11,0,0,1-3.48,2.34,10.53,10.53,0,0,1-4.25.87H495.22v-7.29H511.4a3.56,3.56,0,0,0,1.42-.28A3.63,3.63,0,0,0,514,111a3.65,3.65,0,0,0,0-5.16,3.47,3.47,0,0,0-1.15-.77,3.56,3.56,0,0,0-1.42-.28h-7.29a10.57,10.57,0,0,1-4.24-.86,11.06,11.06,0,0,1-5.82-5.83A10.69,10.69,0,0,1,493.19,93.89Z" transform="translate(-16.54 -29.68)"/><path class="cls-1" d="M548.11,97.54v6.91H526.78V97.54Z" transform="translate(-16.54 -29.68)"/><path class="cls-1" d="M581.09,119.38h-8.83l-7-11.76-7,11.76h-8.79l11.17-18.21L549.43,83h8.79l7,11.75,7-11.75h8.83l-11.17,18.2Z" transform="translate(-16.54 -29.68)"/><rect class="cls-1" x="247.93" y="67.26" width="7.35" height="7.35"/><rect class="cls-1" x="167.03" y="92.56" width="7.29" height="7.16"/><rect class="cls-1" x="507.12" y="53.28" width="7.14" height="7.29"/><rect class="cls-1" x="160.47" y="110.12" width="3.93" height="3.93"/><rect class="cls-1" x="145.47" y="93.12" width="3.93" height="3.93"/></svg>