<svg width="506" height="117" viewBox="0 0 506 117" fill="none" xmlns="http://www.w3.org/2000/svg">
<path d="M162.5 95.1004C160.6 94.1004 159.1 92.5004 158 90.6004C156.5 87.9004 155.3 85.0004 154.5 82.0004L139.4 29.9004H152.6L166.9 81.8004C167.3 83.4004 168 84.2004 169 84.2004C169.9 84.2004 170.6 83.4004 171.1 81.8004L185.4 29.9004H198.6L183.3 82.0004C182.5 85.0004 181.3 87.9004 179.8 90.6004C178.7 92.5004 177.2 94.0004 175.3 95.0004C171.3 96.8004 166.6 96.8004 162.5 95.1004Z" fill="#21BBEE"/>
<path d="M208.3 29.9004H221.5V95.3004H208.3V29.9004Z" fill="#21BBEE"/>
<path d="M246.6 94.9003C243.8 94.0003 241.2 92.6003 239 90.8003C236.6 88.7003 234.5 86.4003 232.7 83.8003L241.6 76.4003C243.6 79.4003 246.1 81.9003 249 83.9003C251.7 85.4003 254.8 86.2003 257.9 86.1003C262.8 86.1003 266.4 85.4003 268.6 83.9003C270.8 82.5003 272 80.2003 272 77.0003C272 75.5003 271.5 74.1003 270.4 73.0003C268.8 71.7003 266.9 70.7003 264.9 70.2003C261.1 69.0003 257.3 68.1003 253.4 67.3003C247.4 66.1003 243 63.8003 240.1 60.6003C237.2 57.4003 235.8 53.1003 235.8 47.8003C235.7 44.2003 236.7 40.7003 238.7 37.7003C240.8 34.7003 243.7 32.4003 247.1 31.1003C251.1 29.5003 255.4 28.7003 259.7 28.8003C265.9 28.8003 270.9 29.7003 274.5 31.6003C278.2 33.4003 281.3 36.2003 283.5 39.7003L274.8 46.8003C273.3 45.2003 271.7 43.8003 270 42.4003C268.7 41.4003 267.2 40.6003 265.7 40.0003C263.8 39.4003 261.7 39.1003 259.7 39.2003C256.2 39.2003 253.5 40.0003 251.7 41.5003C249.9 43.0003 249 45.3003 249 48.2003C248.9 50.7003 250.2 53.1003 252.5 54.2003C255.3 55.7003 258.3 56.7003 261.4 57.3003C265.7 58.1003 270 59.3003 274.2 60.8003C277.3 61.9003 280.1 63.9003 282.1 66.5003C284.2 69.1003 285.3 72.7003 285.3 77.2003C285.3 83.7003 283 88.5003 278.5 91.7003C274 94.9003 267.2 96.5003 258 96.5003C254 96.5003 250.2 95.9003 246.6 94.9003Z" fill="#21BBEE"/>
<path d="M296.5 29.9004H309.7V95.3004H296.5V29.9004Z" fill="#21BBEE"/>
<path d="M329.6 90.3002C325 86.3002 322.7 80.4002 322.7 72.5002V52.5002C322.7 44.7002 325 38.7002 329.6 34.7002C334.2 30.7002 340.8 28.7002 349.4 28.7002C358 28.7002 364.7 30.7002 369.2 34.7002C373.7 38.7002 376.1 44.6002 376.1 52.5002V72.5002C376.1 80.3002 373.8 86.3002 369.2 90.3002C364.6 94.3002 358 96.3002 349.4 96.3002C340.8 96.4002 334.1 94.3002 329.6 90.3002ZM359.4 82.6002C361.7 80.3002 362.9 76.9002 362.9 72.6002V52.6002C362.9 48.2002 361.7 44.9002 359.4 42.6002C357.1 40.3002 353.7 39.1002 349.3 39.1002C344.9 39.1002 341.6 40.3002 339.3 42.6002C337 44.9002 335.8 48.3002 335.8 52.6002V72.6002C335.8 77.0002 337 80.3002 339.3 82.6002C341.6 84.9002 345 86.1002 349.3 86.1002C353.8 86.1002 357.1 84.9002 359.4 82.6002Z" fill="#21BBEE"/>
<path d="M443 29.9004V79.8004C443 84.8004 442 88.7004 439.9 91.3004C437.9 93.9004 434.5 95.2004 430 95.2004H420.8L401.6 50.7004V95.2004H389.3V29.9004H404L427.7 84.0004H427.9C428.8 84.1004 429.7 83.5004 430 82.6004C430.5 81.0004 430.7 79.4004 430.6 77.7004V29.9004H443Z" fill="#21BBEE"/>
<path d="M467 94.9003C464.2 94.0003 461.6 92.6003 459.4 90.8003C457 88.7003 454.9 86.4003 453.1 83.8003L462 76.4003C464 79.4003 466.5 81.9003 469.4 83.9003C472.1 85.4003 475.2 86.2003 478.3 86.1003C483.2 86.1003 486.8 85.4003 489 83.9003C491.2 82.5003 492.4 80.2003 492.4 77.0003C492.4 75.5003 491.9 74.1003 490.8 73.0003C489.2 71.7003 487.3 70.7003 485.3 70.2003C481.5 69.0003 477.7 68.1003 473.8 67.3003C467.8 66.1003 463.4 63.8003 460.5 60.6003C457.6 57.4003 456.1 53.1003 456.1 47.8003C456 44.2003 457 40.7003 459 37.7003C461.1 34.7003 464 32.4003 467.4 31.1003C471.4 29.5003 475.7 28.7003 480 28.8003C486.2 28.8003 491.2 29.7003 494.8 31.6003C498.5 33.4003 501.6 36.2003 503.8 39.7003L495.1 46.8003C493.6 45.2003 492 43.8003 490.3 42.4003C489 41.4003 487.5 40.6003 486 40.0003C484.1 39.4003 482.1 39.1003 480 39.2003C476.4 39.2003 473.8 40.0003 472 41.5003C470.2 43.0003 469.3 45.3003 469.3 48.2003C469.2 50.7003 470.5 53.1003 472.8 54.2003C475.6 55.7003 478.6 56.7003 481.7 57.3003C486 58.1003 490.3 59.3003 494.5 60.8003C497.6 61.9003 500.4 63.9003 502.4 66.5003C504.5 69.1003 505.6 72.7003 505.6 77.2003C505.6 83.7003 503.3 88.5003 498.8 91.7003C494.3 94.9003 487.5 96.5003 478.3 96.5003C474.4 96.5003 470.6 95.9003 467 94.9003Z" fill="#21BBEE"/>
<path d="M59.0002 110.3C87.6085 110.3 110.8 87.1085 110.8 58.5002C110.8 29.8918 87.6085 6.7002 59.0002 6.7002C30.3918 6.7002 7.2002 29.8918 7.2002 58.5002C7.2002 87.1085 30.3918 110.3 59.0002 110.3Z" fill="#16243E"/>
<path d="M59 0C26.7 0 0.5 26.2 0.5 58.5C0.5 90.8 26.7 117 59 117C91.3 117 117.5 90.8 117.5 58.5C117.5 26.2 91.3 0 59 0ZM66.9 97.3H51.3L20.5 29.3L20.3 28.7H97.7L66.9 97.3Z" fill="#21BBEE"/>
<path d="M60.0002 86.7996L80.8002 39.0996H37.2002L58.3002 86.7996H60.0002Z" fill="#21BBEE"/>
</svg>
