<svg id="Calque_1" data-name="Calque 1" xmlns="http://www.w3.org/2000/svg" viewBox="0 0 564.55 140.35"><defs><style>.cls-1{fill:#fff;}</style></defs><path class="cls-1" d="M144.84,74.41,111,40.54a36.29,36.29,0,0,0-51.33,0L25.75,74.41a36.32,36.32,0,0,0,0,51.34l33.88,33.87a36.29,36.29,0,0,0,51.33,0l2.18-2.17h-.46v-7.36H120v.46l13.11-13.1h-3.46v-9.57h9.56v3.46l5.6-5.59A36.3,36.3,0,0,0,144.84,74.41ZM54.64,117c-.81-6.09,1.9-12.78,8-19.89C74,84,73.56,72,72.31,66S67.83,54.69,64,52.47c2.66.08,11.51.88,17.46,8.05,5.32,6.42,6.92,16.13,4.77,28.89a49.62,49.62,0,0,0-1.21-6.83c-1-4.11-3.15-9.57-7.15-12.26l-.73-.5A32.9,32.9,0,0,1,80.24,79a22.81,22.81,0,0,1-.06,7.92A17.42,17.42,0,0,1,76.25,95a76.28,76.28,0,0,1-7,6.82c-7.44,6.64-14.48,12.92-8.9,25.33A16.45,16.45,0,0,1,54.64,117Zm50.93,10.26c-7,5.65-11,10.16-11.76,13.41a33.58,33.58,0,0,1-2-6.52c-.69-3.71-.59-9.77,2.17-14.27l-.63.42a16.71,16.71,0,0,0-4.64,5.07c-2.12,3.31-4.76,9.17-5.3,18.42a16.32,16.32,0,0,1-2.6-2.73,18.89,18.89,0,0,1-3.63-9.09A18.29,18.29,0,0,1,81.49,118,56.31,56.31,0,0,0,92,99.31l.21-.67-.53.46a31.69,31.69,0,0,1-5,3.46c-15.17,8.7-21.82,19-20.82,32.19a29.51,29.51,0,0,1-1.56-8.15,25.12,25.12,0,0,1,7.23-19.08A54.52,54.52,0,0,1,85.7,97,19.24,19.24,0,0,0,95.61,78.3,22.37,22.37,0,0,0,92,68.59a69.85,69.85,0,0,1,9.33,12,45.94,45.94,0,0,1,5.72,13.55,28.29,28.29,0,0,1-.62,15.59l-.22.65.53-.43a23.12,23.12,0,0,0,6.62-10.16,33.61,33.61,0,0,1-.61,6.26,30.29,30.29,0,0,1-7.33,15l-.64.76s4.61-2.56,9-2.56a13.46,13.46,0,0,1,2.48.23C114.94,120.3,110.27,123.43,105.57,127.22Zm13.88,12.41h-5v-5h5Zm15-26.18h-5.72v-5.72h5.72Zm9.28-3v-7.36H151v7.36Z" transform="translate(-15.12 -29.91)"/><rect class="cls-1" x="139.41" y="108.38" width="7.35" height="7.35"/><rect class="cls-1" x="124.26" y="124.05" width="6.58" height="6.58"/><rect class="cls-1" x="143.4" y="127.41" width="3.93" height="3.93"/><rect class="cls-1" x="159.12" y="123.4" width="5.09" height="5.09"/><path class="cls-1" d="M189.72,119.6h-7.28V83.19H197a14.54,14.54,0,0,1,7.33,2,14.67,14.67,0,0,1,2.94,2.28A14.57,14.57,0,0,1,211,93.91a14.58,14.58,0,0,1-.62,9.51,14.72,14.72,0,0,1-7.76,7.76,14.16,14.16,0,0,1-5.65,1.14h-7.29Zm0-29.12v14.58H197a6.88,6.88,0,0,0,2.82-.58,7.3,7.3,0,0,0,3.87-3.88,7.31,7.31,0,0,0,0-5.66,7.27,7.27,0,0,0-3.87-3.89,7,7,0,0,0-2.82-.57Z" transform="translate(-15.12 -29.91)"/><path class="cls-1" d="M223.11,119.6h-7.29V83.19H230.4a14.47,14.47,0,0,1,7.32,2,14.55,14.55,0,0,1,6.76,16.24,14.93,14.93,0,0,1-1.35,3.37,14.33,14.33,0,0,1-2.14,3,14.88,14.88,0,0,1-2.85,2.33l4,9.52h-7.74l-3.18-7.33-8.15,0Zm0-29.12v14.58h7.29a6.88,6.88,0,0,0,2.82-.58,7.3,7.3,0,0,0,3.87-3.88,7.31,7.31,0,0,0,0-5.66,7.27,7.27,0,0,0-3.87-3.89,7,7,0,0,0-2.82-.57Z" transform="translate(-15.12 -29.91)"/><path class="cls-1" d="M285.39,101.55a18.32,18.32,0,0,1-.67,5,19.47,19.47,0,0,1-1.89,4.5,18.7,18.7,0,0,1-2.94,3.82,19.64,19.64,0,0,1-3.81,3,18.67,18.67,0,0,1-19,0,19.07,19.07,0,0,1-6.78-6.77,19.1,19.1,0,0,1-1.91-4.5,19,19,0,0,1,0-10,18.51,18.51,0,0,1,1.91-4.49,18.74,18.74,0,0,1,3-3.81,18.48,18.48,0,0,1,3.82-3,19.22,19.22,0,0,1,4.49-1.89,19,19,0,0,1,10,0,18.62,18.62,0,0,1,8.31,4.84,18.64,18.64,0,0,1,2.94,3.81,18.87,18.87,0,0,1,1.89,4.49A18.5,18.5,0,0,1,285.39,101.55Zm-7.23,0a11.22,11.22,0,0,0-.92-4.5,11.5,11.5,0,0,0-2.47-3.69,11.73,11.73,0,0,0-3.68-2.47,11.54,11.54,0,0,0-9,0,12,12,0,0,0-3.68,2.47,11.55,11.55,0,0,0-2.49,3.69,11.21,11.21,0,0,0-.91,4.5,11,11,0,0,0,.91,4.48,11.76,11.76,0,0,0,6.17,6.16,11.66,11.66,0,0,0,9,0,11.62,11.62,0,0,0,3.68-2.49,11.74,11.74,0,0,0,2.47-3.67A11.05,11.05,0,0,0,278.16,101.55Z" transform="translate(-15.12 -29.91)"/><path class="cls-1" d="M326.3,119.6H319v-26a3.57,3.57,0,0,0-.29-1.42A3.86,3.86,0,0,0,318,91a3.65,3.65,0,0,0-5.16,0,3.63,3.63,0,0,0-.77,1.15,3.56,3.56,0,0,0-.28,1.42v26h-7.29v-26a3.56,3.56,0,0,0-.28-1.42,3.47,3.47,0,0,0-.77-1.15,3.69,3.69,0,0,0-4-.78,3.69,3.69,0,0,0-1.93,1.93,3.56,3.56,0,0,0-.28,1.42v26h-7.29v-26a10.69,10.69,0,0,1,.86-4.25,10.78,10.78,0,0,1,5.81-5.81,10.68,10.68,0,0,1,4.25-.85,10.8,10.8,0,0,1,3.91.72,10.43,10.43,0,0,1,3.38,2.1,10.55,10.55,0,0,1,3.36-2.1,10.79,10.79,0,0,1,3.9-.72,10.61,10.61,0,0,1,4.25.85,10.8,10.8,0,0,1,3.48,2.33,11,11,0,0,1,2.34,3.48,10.68,10.68,0,0,1,.85,4.25Z" transform="translate(-15.12 -29.91)"/><path class="cls-1" d="M357.76,119.6h-25V83.19h25v7.29H340.09v7.29h12v7.29h-12v7.26h17.67Z" transform="translate(-15.12 -29.91)"/><path class="cls-1" d="M378.15,119.6h-7.26V90.48H359.94V83.19h29.13v7.29H378.15Z" transform="translate(-15.12 -29.91)"/><path class="cls-1" d="M400.21,119.6h-7.29V83.19h7.29V97.77h14.55V83.19h7.29V119.6h-7.29V105.06H400.21Z" transform="translate(-15.12 -29.91)"/><path class="cls-1" d="M453.76,119.6h-25V83.19h25v7.29H436.09v7.29h12v7.29h-12v7.26h17.67Z" transform="translate(-15.12 -29.91)"/><path class="cls-1" d="M487.58,105.06a14.22,14.22,0,0,1-1.14,5.67,14.49,14.49,0,0,1-3.12,4.62,14.83,14.83,0,0,1-4.64,3.11,14.7,14.7,0,0,1-11.35,0,14.52,14.52,0,0,1-7.73-7.73,14.22,14.22,0,0,1-1.14-5.67V83.19h7.26v21.87a7,7,0,0,0,.57,2.81,7.52,7.52,0,0,0,1.56,2.32,7.33,7.33,0,0,0,2.33,1.56,7.31,7.31,0,0,0,5.66,0,7.29,7.29,0,0,0,2.32-1.56,7.52,7.52,0,0,0,1.56-2.32,7,7,0,0,0,.57-2.81V83.19h7.29Z" transform="translate(-15.12 -29.91)"/><path class="cls-1" d="M491.77,94.11a10.61,10.61,0,0,1,.86-4.24A11.21,11.21,0,0,1,495,86.41a11.09,11.09,0,0,1,3.47-2.35,10.41,10.41,0,0,1,4.24-.87H519.4v7.29H502.69a3.6,3.6,0,0,0-2.58,1.06,3.47,3.47,0,0,0-.77,1.15,3.53,3.53,0,0,0-.28,1.42,3.66,3.66,0,0,0,.28,1.44,3.45,3.45,0,0,0,.77,1.17,3.67,3.67,0,0,0,1.16.77,3.53,3.53,0,0,0,1.42.28H510a10.68,10.68,0,0,1,4.25.85,11,11,0,0,1,3.48,2.34,10.88,10.88,0,0,1,3.18,7.73,10.6,10.6,0,0,1-.85,4.24,10.82,10.82,0,0,1-2.33,3.46,11,11,0,0,1-3.48,2.35,10.52,10.52,0,0,1-4.25.86H493.8v-7.28H510a3.56,3.56,0,0,0,1.42-.28,3.69,3.69,0,0,0,1.93-1.93,3.74,3.74,0,0,0,.28-1.42,3.71,3.71,0,0,0-.28-1.42,3.59,3.59,0,0,0-.78-1.16,3.47,3.47,0,0,0-1.15-.77,3.56,3.56,0,0,0-1.42-.28h-7.29a10.41,10.41,0,0,1-4.24-.87,11.09,11.09,0,0,1-3.47-2.35,11.26,11.26,0,0,1-2.35-3.47A10.7,10.7,0,0,1,491.77,94.11Z" transform="translate(-15.12 -29.91)"/><path class="cls-1" d="M546.69,97.77v6.91H525.36V97.77Z" transform="translate(-15.12 -29.91)"/><path class="cls-1" d="M579.67,119.6h-8.83l-7-11.75-7,11.75H548l11.17-18.2L548,83.19h8.79l7,11.76,7-11.76h8.83L568.5,101.4Z" transform="translate(-15.12 -29.91)"/><rect class="cls-1" x="247.93" y="67.26" width="7.35" height="7.35"/><rect class="cls-1" x="167.03" y="92.56" width="7.29" height="7.16"/><rect class="cls-1" x="507.12" y="53.28" width="7.14" height="7.29"/><rect class="cls-1" x="160.47" y="110.12" width="3.93" height="3.93"/><rect class="cls-1" x="145.47" y="93.12" width="3.93" height="3.93"/></svg>