<?xml version="1.0" encoding="utf-8"?>
<!-- Generator: Adobe Illustrator 25.0.0, SVG Export Plug-In . SVG Version: 6.00 Build 0)  -->
<svg version="1.1" id="Calque_1" xmlns="http://www.w3.org/2000/svg" xmlns:xlink="http://www.w3.org/1999/xlink" x="0px" y="0px"
	 viewBox="0 0 539.5 125" style="enable-background:new 0 0 539.5 125;" xml:space="preserve">
<style type="text/css">
	.st0{fill:#16243E;}
	.st1{fill:#29BBEE;}
</style>
<g>
	<path class="st0" d="M178.5,100.1c-1.9-1-3.4-2.6-4.5-4.5c-1.5-2.7-2.7-5.6-3.5-8.6l-15.1-52.1h13.2l14.3,51.9
		c0.4,1.6,1.1,2.4,2.1,2.4c0.9,0,1.6-0.8,2.1-2.4l14.3-51.9h13.2L199.3,87c-0.8,3-2,5.9-3.5,8.6c-1.1,1.9-2.6,3.4-4.5,4.4
		C187.3,101.8,182.6,101.8,178.5,100.1z"/>
	<path class="st0" d="M224.3,34.9h13.2v65.4h-13.2V34.9z"/>
	<path class="st0" d="M262.6,99.9c-2.8-0.9-5.4-2.3-7.6-4.1c-2.4-2.1-4.5-4.4-6.3-7l8.9-7.4c2,3,4.5,5.5,7.4,7.5
		c2.7,1.5,5.8,2.3,8.9,2.2c4.9,0,8.5-0.7,10.7-2.2c2.2-1.4,3.4-3.7,3.4-6.9c0-1.5-0.5-2.9-1.6-4c-1.6-1.3-3.5-2.3-5.5-2.8
		c-3.8-1.2-7.6-2.1-11.5-2.9c-6-1.2-10.4-3.5-13.3-6.7c-2.9-3.2-4.3-7.5-4.3-12.8c-0.1-3.6,0.9-7.1,2.9-10.1c2.1-3,5-5.3,8.4-6.6
		c4-1.6,8.3-2.4,12.6-2.3c6.2,0,11.2,0.9,14.8,2.8c3.7,1.8,6.8,4.6,9,8.1l-8.7,7.1c-1.5-1.6-3.1-3-4.8-4.4c-1.3-1-2.8-1.8-4.3-2.4
		c-1.9-0.6-4-0.9-6-0.8c-3.5,0-6.2,0.8-8,2.3s-2.7,3.8-2.7,6.7c-0.1,2.5,1.2,4.9,3.5,6c2.8,1.5,5.8,2.5,8.9,3.1
		c4.3,0.8,8.6,2,12.8,3.5c3.1,1.1,5.9,3.1,7.9,5.7c2.1,2.6,3.2,6.2,3.2,10.7c0,6.5-2.3,11.3-6.8,14.5s-11.3,4.8-20.5,4.8
		C270,101.5,266.2,100.9,262.6,99.9z"/>
	<path class="st0" d="M312.5,34.9h13.2v65.4h-13.2V34.9z"/>
	<path class="st0" d="M345.6,95.3c-4.6-4-6.9-9.9-6.9-17.8v-20c0-7.8,2.3-13.8,6.9-17.8s11.2-6,19.8-6c8.6,0,15.3,2,19.8,6
		s6.9,9.9,6.9,17.8v20c0,7.8-2.3,13.8-6.9,17.8s-11.2,6-19.8,6C356.8,101.4,350.1,99.3,345.6,95.3z M375.4,87.6
		c2.3-2.3,3.5-5.7,3.5-10v-20c0-4.4-1.2-7.7-3.5-10s-5.7-3.5-10.1-3.5s-7.7,1.2-10,3.5s-3.5,5.7-3.5,10v20c0,4.4,1.2,7.7,3.5,10
		s5.7,3.5,10,3.5C369.8,91.1,373.1,89.9,375.4,87.6L375.4,87.6z"/>
	<path class="st0" d="M459,34.9v49.9c0,5-1,8.9-3.1,11.5c-2,2.6-5.4,3.9-9.9,3.9h-9.2l-19.2-44.5v44.5h-12.3V34.9H420L443.7,89h0.2
		c0.9,0.1,1.8-0.5,2.1-1.4c0.5-1.6,0.7-3.2,0.6-4.9V34.9H459z"/>
	<path class="st0" d="M483,99.9c-2.8-0.9-5.4-2.3-7.6-4.1c-2.4-2.1-4.5-4.4-6.3-7l8.9-7.4c2,3,4.5,5.5,7.4,7.5
		c2.7,1.5,5.8,2.3,8.9,2.2c4.9,0,8.5-0.7,10.7-2.2c2.2-1.4,3.4-3.7,3.4-6.9c0-1.5-0.5-2.9-1.6-4c-1.6-1.3-3.5-2.3-5.5-2.8
		c-3.8-1.2-7.6-2.1-11.5-2.9c-6-1.2-10.4-3.5-13.3-6.7c-2.9-3.2-4.4-7.5-4.4-12.8c-0.1-3.6,0.9-7.1,2.9-10.1c2.1-3,5-5.3,8.4-6.6
		c4-1.6,8.3-2.4,12.6-2.3c6.2,0,11.2,0.9,14.8,2.8c3.7,1.8,6.8,4.6,9,8.1l-8.7,7.1c-1.5-1.6-3.1-3-4.8-4.4c-1.3-1-2.8-1.8-4.3-2.4
		c-1.9-0.6-3.9-0.9-6-0.8c-3.6,0-6.2,0.8-8,2.3s-2.7,3.8-2.7,6.7c-0.1,2.5,1.2,4.9,3.5,6c2.8,1.5,5.8,2.5,8.9,3.1
		c4.3,0.8,8.6,2,12.8,3.5c3.1,1.1,5.9,3.1,7.9,5.7c2.1,2.6,3.2,6.2,3.2,10.7c0,6.5-2.3,11.3-6.8,14.5s-11.3,4.8-20.5,4.8
		C490.4,101.5,486.6,100.9,483,99.9z"/>
	<circle class="st1" cx="75" cy="63.5" r="51.8"/>
	<path class="st0" d="M75,5C42.7,5,16.5,31.2,16.5,63.5S42.7,122,75,122s58.5-26.2,58.5-58.5l0,0C133.5,31.2,107.3,5,75,5z
		 M82.9,102.3H67.3l-30.8-68l-0.2-0.6h77.4L82.9,102.3z"/>
	<polygon class="st0" points="76,91.8 96.8,44.1 53.2,44.1 74.3,91.8 	"/>
</g>
</svg>
