<?xml version="1.0" encoding="UTF-8"?><svg id="Award" xmlns="http://www.w3.org/2000/svg" viewBox="0 0 1221.64 293.36"><defs><style>.cls-1{fill:#fff;}.cls-2{fill:none;stroke:#fff;stroke-miterlimit:10;stroke-width:3px;}</style></defs><g><path class="cls-1" d="m298.16,232.38h-15.57l-2.58,7.21h-8.24l14.06-37.88h9.13l14.06,37.88h-8.29l-2.58-7.21Zm-2.13-6.07l-5.66-15.82-5.66,15.82h11.32Z"/><path class="cls-1" d="m405.78,201.76l-10.92,37.83h-9.24l-7.34-26.93-7.67,26.93-9.19.05-10.53-37.88h8.4l6.89,29.37,7.96-29.37h8.74l7.51,29.21,6.95-29.21h8.46Z"/><path class="cls-1" d="m474.07,232.38h-15.57l-2.58,7.21h-8.24l14.06-37.88h9.13l14.06,37.88h-8.29l-2.58-7.21Zm-2.13-6.07l-5.66-15.82-5.66,15.82h11.32Z"/><path class="cls-1" d="m549.59,239.59l-8.63-14.74h-3.7v14.74h-7.84v-37.83h14.68c3.03,0,5.6.51,7.73,1.54,2.13,1.03,3.73,2.42,4.79,4.17,1.06,1.75,1.6,3.71,1.6,5.88,0,2.49-.75,4.74-2.24,6.75-1.5,2.01-3.72,3.39-6.67,4.15l9.36,15.34h-9.08Zm-12.33-20.43h6.55c2.13,0,3.72-.5,4.76-1.49,1.04-.99,1.57-2.38,1.57-4.15s-.52-3.08-1.57-4.04c-1.05-.96-2.63-1.44-4.76-1.44h-6.55v11.11Z"/><path class="cls-1" d="m629.05,204.09c3.12,1.55,5.53,3.77,7.23,6.64,1.7,2.87,2.55,6.21,2.55,10s-.85,7.11-2.55,9.95-4.11,5.03-7.23,6.58c-3.12,1.55-6.73,2.33-10.84,2.33h-13.67v-37.83h13.67c4.11,0,7.72.78,10.84,2.33Zm-1.6,25.8c2.24-2.17,3.36-5.22,3.36-9.16s-1.12-7.02-3.36-9.24c-2.24-2.22-5.42-3.33-9.52-3.33h-5.55v24.98h5.55c4.11,0,7.28-1.08,9.52-3.25Z"/></g><g><path class="cls-1" d="m730.38,223.2c3.75-3.96,5.63-7.83,5.63-11.62,0-2.49-.64-4.49-1.93-5.99-1.29-1.5-3.39-2.25-6.3-2.25s-5.03.86-6.58,2.57c-1.55,1.72-2.42,4-2.61,6.86h-3.81c.22-4.01,1.5-7.13,3.84-9.35,2.33-2.22,5.39-3.33,9.16-3.33s6.55.98,8.79,2.95c2.24,1.97,3.36,4.76,3.36,8.37,0,4.37-1.88,8.61-5.63,12.71-3.75,4.1-8.38,8.1-13.87,12h20.73v3.2h-26.72v-2.71c6.87-4.99,12.18-9.46,15.94-13.41Z"/><path class="cls-1" d="m789.46,205.34c1.98-3.43,5.53-5.15,10.64-5.15s8.67,1.72,10.64,5.15c1.98,3.43,2.97,8.26,2.97,14.47s-.99,11.22-2.97,14.69-5.53,5.2-10.64,5.2-8.71-1.73-10.67-5.2-2.94-8.36-2.94-14.69.99-11.04,2.97-14.47Zm19.66,5.96c-.49-2.31-1.44-4.17-2.86-5.58-1.42-1.41-3.47-2.11-6.16-2.11s-4.74.71-6.16,2.11c-1.42,1.41-2.37,3.27-2.86,5.58-.49,2.31-.73,5.15-.73,8.51s.24,6.37.73,8.7c.48,2.33,1.44,4.2,2.86,5.61,1.42,1.41,3.47,2.11,6.16,2.11s4.74-.71,6.16-2.11c1.42-1.41,2.37-3.28,2.86-5.61s.73-5.23.73-8.7-.24-6.2-.73-8.51Z"/><path class="cls-1" d="m875.37,223.2c3.75-3.96,5.63-7.83,5.63-11.62,0-2.49-.64-4.49-1.93-5.99-1.29-1.5-3.39-2.25-6.3-2.25s-5.03.86-6.58,2.57c-1.55,1.72-2.42,4-2.6,6.86h-3.81c.22-4.01,1.5-7.13,3.84-9.35,2.33-2.22,5.39-3.33,9.16-3.33s6.55.98,8.79,2.95c2.24,1.97,3.36,4.76,3.36,8.37,0,4.37-1.88,8.61-5.63,12.71-3.75,4.1-8.38,8.1-13.87,12h20.73v3.2h-26.72v-2.71c6.87-4.99,12.19-9.46,15.94-13.41Z"/><path class="cls-1" d="m935.25,202.87c2.37-1.9,5.44-2.85,9.22-2.85,2.5,0,4.65.43,6.44,1.3s3.15,2.05,4.06,3.55c.91,1.5,1.37,3.19,1.37,5.07,0,2.28-.69,4.25-2.07,5.91-1.38,1.66-3.34,2.69-5.88,3.09v.27c2.65.51,4.76,1.62,6.33,3.33,1.57,1.72,2.35,3.96,2.35,6.75,0,3.11-1.07,5.65-3.22,7.62-2.15,1.97-5.26,2.95-9.33,2.95s-7.08-.98-9.58-2.95c-2.5-1.97-3.94-4.76-4.31-8.37h3.81c.34,2.42,1.38,4.38,3.14,5.88,1.75,1.5,4.07,2.25,6.95,2.25s5.01-.72,6.53-2.17c1.51-1.44,2.27-3.29,2.27-5.53,0-5.49-4.09-8.24-12.27-8.24h-1.23v-3.2h1.29c7.62,0,11.43-2.4,11.43-7.21,0-2.1-.71-3.78-2.13-5.07-1.42-1.28-3.44-1.92-6.05-1.92s-4.64.64-6.3,1.92c-1.66,1.28-2.64,3.08-2.94,5.39h-3.81c.26-3.29,1.58-5.88,3.95-7.78Z"/></g><g><path class="cls-1" d="m728.63,128.88c-5.39-2.96-9.64-7.1-12.77-12.4-3.13-5.31-4.69-11.28-4.69-17.92s1.56-12.62,4.69-17.92c3.13-5.31,7.39-9.44,12.77-12.4,5.38-2.96,11.34-4.44,17.87-4.44s12.59,1.48,17.97,4.44c5.38,2.96,9.62,7.08,12.72,12.36,3.1,5.27,4.64,11.27,4.64,17.97s-1.55,12.7-4.64,17.97c-3.1,5.27-7.34,9.39-12.72,12.36-5.39,2.96-11.38,4.44-17.97,4.44s-12.49-1.48-17.87-4.44Zm31.15-6.59c3.94-2.21,7.03-5.37,9.29-9.47,2.25-4.1,3.38-8.85,3.38-14.26s-1.13-10.24-3.38-14.31c-2.26-4.07-5.34-7.21-9.24-9.43-3.91-2.21-8.35-3.32-13.33-3.32s-9.42,1.11-13.33,3.32c-3.9,2.21-6.98,5.36-9.24,9.43-2.26,4.07-3.38,8.84-3.38,14.31s1.13,10.16,3.38,14.26c2.25,4.1,5.35,7.26,9.29,9.47,3.94,2.21,8.36,3.32,13.28,3.32s9.34-1.11,13.28-3.32Z"/><path class="cls-1" d="m806.22,81.31c3.6-2.05,7.79-3.08,12.57-3.08s9.37,1.14,13.38,3.42c4,2.28,7.15,5.49,9.44,9.62,2.29,4.14,3.43,8.94,3.43,14.41s-1.15,10.22-3.43,14.46c-2.29,4.23-5.44,7.52-9.44,9.87-4.01,2.34-8.47,3.52-13.38,3.52s-8.87-1.03-12.47-3.08c-3.6-2.05-6.35-4.61-8.23-7.67v35.26h-9.19v-78.92h9.19v9.86c1.82-3.06,4.53-5.62,8.13-7.67Zm26.91,13.82c-1.68-2.99-3.96-5.28-6.82-6.84-2.86-1.56-6.01-2.34-9.44-2.34s-6.48.8-9.34,2.39c-2.86,1.6-5.15,3.91-6.87,6.94-1.72,3.03-2.58,6.53-2.58,10.5s.86,7.57,2.58,10.6c1.72,3.03,4,5.34,6.87,6.93,2.86,1.6,5.97,2.39,9.34,2.39s6.58-.8,9.44-2.39c2.86-1.59,5.13-3.91,6.82-6.93,1.68-3.03,2.52-6.59,2.52-10.7s-.84-7.55-2.52-10.55Z"/><path class="cls-1" d="m902.29,109.2h-44.22c.34,5.27,2.2,9.39,5.6,12.36,3.4,2.96,7.52,4.45,12.37,4.45,3.97,0,7.29-.89,9.95-2.69,2.66-1.79,4.53-4.18,5.6-7.18h9.89c-1.48,5.14-4.44,9.33-8.88,12.55-4.44,3.22-9.96,4.83-16.56,4.83-5.25,0-9.95-1.14-14.08-3.42-4.14-2.28-7.39-5.52-9.74-9.72-2.36-4.2-3.53-9.07-3.53-14.6s1.14-10.39,3.43-14.55c2.29-4.17,5.5-7.37,9.64-9.62,4.14-2.25,8.9-3.37,14.29-3.37s9.9,1.11,13.93,3.32c4.04,2.21,7.15,5.26,9.34,9.13,2.19,3.88,3.28,8.25,3.28,13.14,0,1.69-.1,3.48-.3,5.37Zm-11.51-15.97c-1.55-2.44-3.65-4.3-6.31-5.57-2.66-1.27-5.6-1.9-8.83-1.9-4.64,0-8.6,1.43-11.86,4.3-3.27,2.87-5.13,6.84-5.6,11.92h34.94c0-3.39-.77-6.3-2.32-8.74Z"/><path class="cls-1" d="m925.77,80.68c2.99-1.69,6.65-2.54,10.96-2.54v9.18h-2.42c-10.3,0-15.45,5.41-15.45,16.21v29.11h-9.19v-53.52h9.19v8.69c1.62-3.06,3.92-5.44,6.92-7.13Z"/><path class="cls-1" d="m942.28,91.28c2.29-4.13,5.44-7.34,9.44-9.62,4-2.28,8.46-3.42,13.38-3.42s9.05,1.01,12.62,3.03c3.57,2.02,6.23,4.56,7.98,7.62v-9.77h9.29v53.52h-9.29v-9.96c-1.82,3.13-4.53,5.71-8.13,7.77-3.6,2.05-7.79,3.08-12.57,3.08s-9.36-1.17-13.33-3.52c-3.97-2.34-7.1-5.63-9.39-9.87-2.29-4.23-3.43-9.05-3.43-14.46s1.14-10.27,3.43-14.41Zm40.89,3.96c-1.68-2.99-3.96-5.29-6.82-6.89-2.86-1.59-6.01-2.39-9.44-2.39s-6.56.78-9.39,2.34-5.08,3.84-6.77,6.84c-1.68,3-2.52,6.51-2.52,10.55s.84,7.67,2.52,10.7c1.68,3.03,3.94,5.34,6.77,6.93,2.83,1.6,5.96,2.39,9.39,2.39s6.58-.8,9.44-2.39c2.86-1.59,5.13-3.91,6.82-6.93,1.68-3.03,2.52-6.56,2.52-10.6s-.84-7.55-2.52-10.55Z"/><path class="cls-1" d="m1016.69,86.44v31.55c0,2.61.57,4.44,1.72,5.52,1.14,1.07,3.13,1.61,5.96,1.61h6.76v7.52h-8.28c-5.12,0-8.95-1.14-11.51-3.42-2.56-2.28-3.84-6.02-3.84-11.23v-31.55h-7.17v-7.33h7.17v-13.48h9.19v13.48h14.44v7.33h-14.44Z"/><path class="cls-1" d="m1047.23,130.1c-4.21-2.28-7.51-5.52-9.89-9.72-2.39-4.2-3.58-9.07-3.58-14.6s1.23-10.3,3.69-14.5c2.46-4.2,5.81-7.42,10.05-9.67,4.24-2.25,8.99-3.37,14.24-3.37s10,1.12,14.24,3.37c4.24,2.25,7.59,5.45,10.05,9.62,2.46,4.17,3.68,9.02,3.68,14.55s-1.26,10.4-3.79,14.6c-2.52,4.2-5.94,7.44-10.25,9.72-4.31,2.28-9.09,3.42-14.34,3.42s-9.88-1.14-14.08-3.42Zm23.37-6.64c2.89-1.5,5.23-3.74,7.02-6.74,1.78-2.99,2.68-6.64,2.68-10.94s-.88-7.94-2.62-10.94c-1.75-2.99-4.04-5.23-6.87-6.69s-5.89-2.2-9.19-2.2-6.45.73-9.24,2.2c-2.79,1.46-5.03,3.7-6.71,6.69-1.68,3-2.52,6.64-2.52,10.94s.82,8.04,2.47,11.04c1.65,3,3.85,5.22,6.61,6.69,2.76,1.46,5.79,2.2,9.09,2.2s6.39-.75,9.29-2.25Z"/><path class="cls-1" d="m1112.86,80.68c2.99-1.69,6.65-2.54,10.96-2.54v9.18h-2.42c-10.3,0-15.45,5.41-15.45,16.21v29.11h-9.19v-53.52h9.19v8.69c1.62-3.06,3.92-5.44,6.92-7.13Z"/></g><g><g><path class="cls-1" d="m136.93,92.18c0,3.39,2.75,6.14,6.14,6.14s6.14-2.75,6.14-6.14-2.75-6.14-6.14-6.14-6.14,2.75-6.14,6.14Z"/><path class="cls-1" d="m130.79,86.03c-3.39,0-6.14,2.75-6.14,6.14s2.75,6.14,6.14,6.14,6.14-2.75,6.14-6.14-2.75-6.14-6.14-6.14Z"/><path class="cls-1" d="m163.55,65.56c3.39,0,6.14-2.75,6.14-6.14,0-2.12-1.07-3.98-2.7-5.09-1.65-.36-3.32-.65-5.03-.82-2.62.7-4.56,3.07-4.56,5.91,0,3.39,2.75,6.14,6.14,6.14Z"/><path class="cls-1" d="m152.84,53.5c-1.67.17-3.32.44-4.93.78-1.67,1.1-2.78,2.98-2.78,5.13,0,3.39,2.75,6.14,6.14,6.14s6.14-2.75,6.14-6.14c0-2.85-1.95-5.22-4.57-5.91Z"/><circle class="cls-1" cx="134.88" cy="124.94" r="6.14" transform="translate(-48.84 131.97) rotate(-45)"/><path class="cls-1" d="m161.15,143.3c.21-.63.36-1.29.36-1.98,0-3.39-2.75-6.14-6.14-6.14s-6.14,2.75-6.14,6.14c0,.5.07.97.19,1.43,2.59.46,5.24.74,7.95.74,1.28,0,2.54-.09,3.79-.19Z"/><path class="cls-1" d="m143.07,135.18c-2.5,0-4.65,1.5-5.61,3.65,3.62,1.78,7.49,3.11,11.58,3.87.1-.44.17-.9.17-1.38,0-3.39-2.75-6.14-6.14-6.14Z"/><path class="cls-1" d="m112.47,102.76c.4,4.15,1.39,8.11,2.84,11.85,2.96-.44,5.25-2.97,5.25-6.05,0-3.39-2.75-6.14-6.14-6.14-.68,0-1.33.14-1.94.34Z"/><path class="cls-1" d="m126.69,69.65h-4.1s-.01,0-.02,0c-2.18,2.64-4.03,5.55-5.57,8.65.96,2.14,3.11,3.64,5.59,3.64h4.1c3.38,0,6.14-2.76,6.14-6.14s-2.76-6.14-6.14-6.14Z"/><path class="cls-1" d="m171.74,102.41c-3.38,0-6.14,2.76-6.14,6.14s2.76,6.14,6.14,6.14h4.1c3.38,0,6.14-2.76,6.14-6.14s-2.76-6.14-6.14-6.14h-4.1Z"/><path class="cls-1" d="m167.64,131.08c3.38,0,6.14-2.76,6.14-6.14s-2.76-6.14-6.14-6.14h-4.1c-3.38,0-6.14,2.76-6.14,6.14s2.76,6.14,6.14,6.14h4.1Z"/><path class="cls-1" d="m171.74,86.03h-4.1c-3.38,0-6.14,2.76-6.14,6.14s2.76,6.14,6.14,6.14h4.1c3.38,0,6.14-2.76,6.14-6.14s-2.76-6.14-6.14-6.14Z"/><path class="cls-1" d="m151.26,118.8h-4.1c-3.38,0-6.14,2.76-6.14,6.14s2.76,6.14,6.14,6.14h4.1c3.38,0,6.14-2.76,6.14-6.14s-2.76-6.14-6.14-6.14Z"/><path class="cls-1" d="m188.38,131.08c3.69-3.5,6.77-7.6,9.12-12.17-.38-.08-.78-.12-1.18-.12h-12.29c-3.38,0-6.14,2.76-6.14,6.14s2.76,6.14,6.14,6.14h4.35Z"/><path class="cls-1" d="m155.36,114.7c3.38,0,6.14-2.76,6.14-6.14s-2.76-6.14-6.14-6.14h-6.14c-3.38,0-6.14,2.76-6.14,6.14s2.76,6.14,6.14,6.14h6.14Z"/><path class="cls-1" d="m167.64,69.65h-16.38c-3.38,0-6.14,2.76-6.14,6.14s2.76,6.14,6.14,6.14h16.38c3.38,0,6.14-2.76,6.14-6.14s-2.76-6.14-6.14-6.14Z"/><path class="cls-1" d="m188.12,114.7h11.26c1.5-3.87,2.5-7.98,2.89-12.29h-14.14c-3.38,0-6.14,2.76-6.14,6.14s2.76,6.14,6.14,6.14Z"/><path class="cls-1" d="m175.84,65.56h12.4c-4.82-4.53-10.6-8.03-17.05-10.11-.92,1.07-1.49,2.45-1.49,3.96,0,3.38,2.76,6.14,6.14,6.14Z"/><path class="cls-1" d="m184.03,69.65c-3.38,0-6.14,2.76-6.14,6.14s2.76,6.14,6.14,6.14h15.3c-1.76-4.48-4.18-8.63-7.2-12.29h-8.11Z"/><path class="cls-1" d="m183.4,135.18h-11.66c-3.38,0-6.14,2.76-6.14,6.14,0,.47.06.92.17,1.36,6.48-1.22,12.46-3.83,17.64-7.51Z"/><path class="cls-1" d="m181.98,92.18c0,3.38,2.76,6.14,6.14,6.14h14.34c0-4.26-.64-8.38-1.75-12.29h-12.59c-3.38,0-6.14,2.76-6.14,6.14Z"/></g><g><path class="cls-1" d="m85.74,180.22c3.39,0,6.14-2.75,6.14-6.14,0-2.99-2.15-5.48-4.98-6.03-2.3,3.4-4.07,6.95-5.42,10.44,1.1,1.06,2.6,1.73,4.25,1.73Z"/><path class="cls-1" d="m153.27,158.07c-4.13-.28-8.12-1.01-11.97-2.1-.16.55-.28,1.12-.28,1.72,0,3.39,2.75,6.14,6.14,6.14s5.91-2.55,6.11-5.77Z"/><path class="cls-1" d="m102.12,180.22c3.39,0,6.14-2.75,6.14-6.14s-2.75-6.14-6.14-6.14-6.14,2.75-6.14,6.14,2.75,6.14,6.14,6.14Z"/><path class="cls-1" d="m124.64,206.84c0,3.39,2.75,6.14,6.14,6.14s6.14-2.75,6.14-6.14-2.75-6.14-6.14-6.14-6.14,2.75-6.14,6.14Z"/><circle class="cls-1" cx="175.84" cy="223.22" r="6.14"/><path class="cls-1" d="m157.41,206.84c0-3.39-2.75-6.14-6.14-6.14s-6.14,2.75-6.14,6.14,2.75,6.14,6.14,6.14,6.14-2.75,6.14-6.14Z"/><path class="cls-1" d="m145.12,174.08c0-3.38-2.76-6.14-6.14-6.14h-4.1c-3.38,0-6.14,2.76-6.14,6.14s2.76,6.14,6.14,6.14h4.1c3.38,0,6.14-2.76,6.14-6.14Z"/><path class="cls-1" d="m124.64,157.7c0-3.38-2.76-6.14-6.14-6.14h-4.1c-3.38,0-6.14,2.76-6.14,6.14s2.76,6.14,6.14,6.14h4.1c3.38,0,6.14-2.76,6.14-6.14Z"/><path class="cls-1" d="m159.45,167.94h-4.1c-3.38,0-6.14,2.76-6.14,6.14s2.76,6.14,6.14,6.14h4.1c3.38,0,6.14-2.76,6.14-6.14s-2.76-6.14-6.14-6.14Z"/><path class="cls-1" d="m175.84,200.7h-4.1c-3.38,0-6.14,2.76-6.14,6.14s2.76,6.14,6.14,6.14h4.1c3.38,0,6.14-2.76,6.14-6.14s-2.76-6.14-6.14-6.14Z"/><path class="cls-1" d="m120.55,223.22c0-3.38-2.76-6.14-6.14-6.14h-4.1c-3.38,0-6.14,2.76-6.14,6.14,0,.85.18,1.67.5,2.41,2.33,1.33,4.72,2.58,7.15,3.73h2.59c3.38,0,6.14-2.76,6.14-6.14Z"/><path class="cls-1" d="m106.22,196.61h4.1c3.38,0,6.14-2.76,6.14-6.14s-2.76-6.14-6.14-6.14h-4.1c-3.38,0-6.14,2.76-6.14,6.14s2.76,6.14,6.14,6.14Z"/><path class="cls-1" d="m175.84,163.84c3.38,0,6.14-2.76,6.14-6.14,0-1.59-.63-3.03-1.63-4.13-5.85,2.47-12.18,4.03-18.81,4.5.2,3.21,2.85,5.77,6.11,5.77h8.19Z"/><path class="cls-1" d="m200.41,196.61h8.19c3.38,0,6.14-2.76,6.14-6.14s-2.76-6.14-6.14-6.14h-8.19c-3.38,0-6.14,2.76-6.14,6.14s2.76,6.14,6.14,6.14Z"/><path class="cls-1" d="m175.84,196.61h12.29c3.38,0,6.14-2.76,6.14-6.14s-2.76-6.14-6.14-6.14h-12.29c-3.38,0-6.14,2.76-6.14,6.14s2.76,6.14,6.14,6.14Z"/><path class="cls-1" d="m130.79,229.37h12.29c3.38,0,6.14-2.76,6.14-6.14s-2.76-6.14-6.14-6.14h-12.29c-3.38,0-6.14,2.76-6.14,6.14s2.76,6.14,6.14,6.14Z"/><path class="cls-1" d="m212.69,217.08h-16.38c-3.38,0-6.14,2.76-6.14,6.14s2.76,6.14,6.14,6.14h6.68c5.32-2.53,10.4-5.49,15.19-8.83-1-2.04-3.08-3.46-5.5-3.46Z"/><path class="cls-1" d="m216.79,167.94c-3.38,0-6.14,2.76-6.14,6.14s2.76,6.14,6.14,6.14h16.38c.23,0,.45-.04.67-.07-1.43-4.06-3.4-8.24-6.11-12.22h-10.94Z"/><path class="cls-1" d="m220.88,196.61h16.38s.03,0,.04,0c-.29-3.43-.91-7.69-2.16-12.28h-14.26c-3.38,0-6.14,2.76-6.14,6.14s2.76,6.14,6.14,6.14Z"/><path class="cls-1" d="m165.6,190.46c0-3.38-2.76-6.14-6.14-6.14h-16.38c-3.38,0-6.14,2.76-6.14,6.14s2.76,6.14,6.14,6.14h16.38c3.38,0,6.14-2.76,6.14-6.14Z"/><path class="cls-1" d="m184.03,233.46h-8.19c-3.13,0-5.71,2.39-6.07,5.42,6.31-.73,12.46-2.01,18.38-3.8-1.09-1-2.53-1.63-4.12-1.63Z"/><path class="cls-1" d="m159.45,233.46h-16.38c-2.71,0-4.99,1.79-5.81,4.23,6.52,1.25,13.25,1.91,20.14,1.91h0c2.75,0,5.47-.1,8.16-.31-.17-3.23-2.84-5.83-6.11-5.83Z"/><path class="cls-1" d="m192.22,163.84h24.57c2.16,0,4.06-1.14,5.15-2.83-3.78-3.7-8.48-6.97-14.3-9.45h-15.42c-3.38,0-6.14,2.76-6.14,6.14s2.76,6.14,6.14,6.14Z"/><path class="cls-1" d="m104.17,157.7c0-1.54-.59-2.93-1.53-4.01-3.81,2.1-7.04,4.56-9.8,7.25,1.09,1.73,3,2.9,5.19,2.9,3.38,0,6.14-2.76,6.14-6.14Z"/><path class="cls-1" d="m200.41,200.7h-12.29c-3.38,0-6.14,2.76-6.14,6.14s2.76,6.14,6.14,6.14h12.29c3.38,0,6.14-2.76,6.14-6.14s-2.76-6.14-6.14-6.14Z"/><path class="cls-1" d="m204.5,167.94h-24.57c-3.38,0-6.14,2.76-6.14,6.14s2.76,6.14,6.14,6.14h24.57c3.38,0,6.14-2.76,6.14-6.14s-2.76-6.14-6.14-6.14Z"/><path class="cls-1" d="m237.26,200.7h-24.57c-3.38,0-6.14,2.76-6.14,6.14s2.76,6.14,6.14,6.14h15.11c3.46-3.05,6.72-6.33,9.75-9.8v-.98c0-.44,0-.94-.02-1.48-.09,0-.18-.03-.27-.03Z"/></g></g><g><g><path class="cls-1" d="m356.6,53.5v79.13h-15.87v-51.47l-21.2,51.47h-12.02l-21.32-51.47v51.47h-15.87V53.5h18.03l25.17,58.84,25.17-58.84h17.91Z"/><path class="cls-1" d="m427.79,69.83l-38.89,92.51h-16.89l13.6-31.29-25.17-61.22h17.8l16.21,43.87,16.44-43.87h16.89Z"/></g><g><path class="cls-1" d="m481.36,58.38c6.31,3.25,11.18,7.88,14.62,13.89,3.44,6.01,5.16,12.98,5.16,20.92s-1.72,14.87-5.16,20.8c-3.44,5.93-8.31,10.52-14.62,13.77-6.31,3.25-13.63,4.88-21.94,4.88h-27.66V53.5h27.66c8.31,0,15.63,1.63,21.94,4.88Zm-3.23,53.96c4.54-4.53,6.8-10.92,6.8-19.16s-2.27-14.68-6.8-19.33c-4.53-4.65-10.96-6.97-19.27-6.97h-11.22v52.27h11.22c8.31,0,14.74-2.27,19.27-6.8Z"/><path class="cls-1" d="m508.23,84.11c2.53-4.91,5.97-8.69,10.32-11.34,4.35-2.64,9.2-3.97,14.57-3.97,4.69,0,8.79.94,12.3,2.83,3.51,1.89,6.33,4.27,8.45,7.14v-8.95h15.98v62.81h-15.98v-9.18c-2.04,2.95-4.86,5.39-8.45,7.31-3.59,1.93-7.73,2.89-12.41,2.89-5.29,0-10.11-1.36-14.46-4.08-4.35-2.72-7.79-6.56-10.32-11.51-2.53-4.95-3.8-10.64-3.8-17.06s1.26-11.98,3.8-16.89Zm43.36,7.2c-1.51-2.76-3.55-4.87-6.12-6.35-2.57-1.47-5.33-2.21-8.28-2.21s-5.67.72-8.16,2.15c-2.49,1.44-4.52,3.54-6.06,6.29-1.55,2.76-2.32,6.03-2.32,9.81s.77,7.09,2.32,9.92c1.55,2.83,3.59,5.01,6.12,6.52,2.53,1.51,5.23,2.27,8.1,2.27s5.71-.74,8.28-2.21c2.57-1.47,4.61-3.59,6.12-6.35,1.51-2.76,2.27-6.06,2.27-9.92s-.76-7.16-2.27-9.92Z"/><path class="cls-1" d="m599.33,82.87v30.38c0,2.12.51,3.65,1.53,4.59,1.02.95,2.74,1.42,5.16,1.42h7.37v13.38h-9.98c-13.38,0-20.07-6.5-20.07-19.5v-30.27h-7.48v-13.04h7.48v-15.53h15.99v15.53h14.06v13.04h-14.06Z"/><path class="cls-1" d="m620.02,84.11c2.53-4.91,5.97-8.69,10.32-11.34,4.35-2.64,9.2-3.97,14.57-3.97,4.69,0,8.79.94,12.3,2.83,3.51,1.89,6.33,4.27,8.45,7.14v-8.95h15.98v62.81h-15.98v-9.18c-2.04,2.95-4.86,5.39-8.45,7.31-3.59,1.93-7.73,2.89-12.41,2.89-5.29,0-10.11-1.36-14.46-4.08-4.35-2.72-7.79-6.56-10.32-11.51-2.53-4.95-3.8-10.64-3.8-17.06s1.26-11.98,3.8-16.89Zm43.36,7.2c-1.51-2.76-3.55-4.87-6.12-6.35-2.57-1.47-5.33-2.21-8.28-2.21s-5.67.72-8.16,2.15c-2.49,1.44-4.52,3.54-6.06,6.29-1.55,2.76-2.32,6.03-2.32,9.81s.77,7.09,2.32,9.92c1.55,2.83,3.59,5.01,6.12,6.52,2.53,1.51,5.23,2.27,8.1,2.27s5.71-.74,8.28-2.21c2.57-1.47,4.61-3.59,6.12-6.35,1.51-2.76,2.27-6.06,2.27-9.92s-.76-7.16-2.27-9.92Z"/></g></g><rect class="cls-2" x="465.63" y="-462.63" width="290.36" height="1218.63" rx="142.01" ry="142.01" transform="translate(757.49 -464.13) rotate(90)"/></svg>